<svg xmlns="http://www.w3.org/2000/svg" viewBox="0 0 1200 600" fill="none">
  <rect width="1200" height="600" fill="#163818"/>
  <rect width="1200" height="600" fill="url(#g1)" opacity="0.6"/>
  <defs>
    <linearGradient id="g1" x1="0" y1="0" x2="1200" y2="600">
      <stop offset="0%" stop-color="#215220"/>
      <stop offset="100%" stop-color="#3d8a38"/>
    </linearGradient>
  </defs>
  <!-- Asparagus stalks -->
  <g opacity="0.15">
    <rect x="520" y="120" width="12" height="380" rx="6" fill="#fff"/>
    <rect x="550" y="100" width="14" height="400" rx="7" fill="#fff"/>
    <rect x="584" y="140" width="12" height="360" rx="6" fill="#fff"/>
    <rect x="614" y="110" width="16" height="390" rx="8" fill="#fff"/>
    <rect x="650" y="130" width="12" height="370" rx="6" fill="#fff"/>
    <rect x="680" y="90" width="14" height="410" rx="7" fill="#fff"/>
    <ellipse cx="526" cy="118" rx="10" ry="14" fill="#fff"/>
    <ellipse cx="557" cy="98" rx="12" ry="16" fill="#fff"/>
    <ellipse cx="590" cy="138" rx="10" ry="14" fill="#fff"/>
    <ellipse cx="622" cy="108" rx="13" ry="17" fill="#fff"/>
    <ellipse cx="656" cy="128" rx="10" ry="14" fill="#fff"/>
    <ellipse cx="687" cy="88" rx="12" ry="16" fill="#fff"/>
  </g>
  <text x="600" y="320" text-anchor="middle" font-family="Georgia,serif" font-size="28" fill="#b8dbb3" opacity="0.8">Foto: Esparragos frescos</text>
  <text x="600" y="360" text-anchor="middle" font-family="Georgia,serif" font-size="16" fill="#8ec489" opacity="0.6">1200 x 600 px</text>
</svg>
