<svg xmlns="http://www.w3.org/2000/svg" viewBox="0 0 300 300" fill="none">
  <rect width="300" height="300" fill="#f8f8f5"/>
  <!-- cardo - hojas alargadas con espinas -->
  <path d="M150 90 Q130 120 128 170 Q135 180 150 178 Q165 180 172 170 Q170 120 150 90Z" fill="#b8c890" opacity="0.7"/>
  <path d="M150 95 Q140 125 138 168 Q144 176 150 175 Q156 176 162 168 Q160 125 150 95Z" fill="#d0dca0"/>
  <!-- nervio central -->
  <line x1="150" y1="95" x2="150" y2="175" stroke="#8a9a60" stroke-width="2" opacity="0.6"/>
  <!-- espinas -->
  <line x1="140" y1="120" x2="132" y2="115" stroke="#6a8040" stroke-width="1.5" opacity="0.5"/>
  <line x1="160" y1="120" x2="168" y2="115" stroke="#6a8040" stroke-width="1.5" opacity="0.5"/>
  <line x1="138" y1="140" x2="130" y2="135" stroke="#6a8040" stroke-width="1.5" opacity="0.5"/>
  <line x1="162" y1="140" x2="170" y2="135" stroke="#6a8040" stroke-width="1.5" opacity="0.5"/>
  <text x="150" y="215" text-anchor="middle" font-family="Georgia,serif" font-size="16" fill="#4a5a20" opacity="0.8">Cardo</text>
  <text x="150" y="235" text-anchor="middle" font-family="Georgia,serif" font-size="11" fill="#8a9a50" opacity="0.6">Producción propia · Dic–Feb</text>
</svg>
