<svg xmlns="http://www.w3.org/2000/svg" viewBox="0 0 800 500" fill="none">
  <rect width="800" height="500" fill="#0e2560"/>
  <rect width="800" height="500" fill="url(#gh2)" opacity="0.5"/>
  <defs>
    <linearGradient id="gh2" x1="0" y1="0" x2="800" y2="500">
      <stop offset="0%" stop-color="#081540"/>
      <stop offset="100%" stop-color="#1e47a0"/>
    </linearGradient>
  </defs>
  <g opacity="0.12" transform="translate(300,120) scale(2.5)">
    <path d="M14.7 6.3a1 1 0 0 0 0 1.4l1.6 1.6a1 1 0 0 0 1.4 0l3.77-3.77a6 6 0 0 1-7.94 7.94l-6.91 6.91a2.12 2.12 0 0 1-3-3l6.91-6.91a6 6 0 0 1 7.94-7.94l-3.76 3.76z" stroke="#fff" stroke-width="1.5" fill="none"/>
  </g>
  <text x="400" y="280" text-anchor="middle" font-family="Georgia,serif" font-size="24" fill="#b2c8ec" opacity="0.8">Foto: Taller</text>
  <text x="400" y="310" text-anchor="middle" font-family="Georgia,serif" font-size="14" fill="#80a4de" opacity="0.6">800 x 500 px</text>
</svg>
